name D:\school\WTK\thesis\model\3dpredictsim\Results\MidTarsalJoint\Fal_s1_bCst_PF_Natali2010_ls150_MT_k300_d020_MTP_T5_ig23.mot
datacolumns 128
datarows 4
range 0.00000000 0.03413305
endheader
time	pelvis_tilt	pelvis_list	pelvis_rotation	pelvis_tx	pelvis_ty	pelvis_tz	hip_flexion_l	hip_adduction_l	hip_rotation_l	hip_flexion_r	hip_adduction_r	hip_rotation_r	knee_angle_l	knee_angle_r	ankle_angle_l	ankle_angle_r	subtalar_angle_l	subtalar_angle_r	mtj_angle_l	mtj_angle_r	mtp_angle_l	mtp_angle_r	lumbar_extension	lumbar_bending	lumbar_rotation	arm_flex_l	arm_add_l	arm_rot_l	arm_flex_r	arm_add_r	arm_rot_r	elbow_flex_l	elbow_flex_r	pro_sup_l	pro_sup_r	glut_med1_l/activation	glut_med2_l/activation	glut_med3_l/activation	glut_min1_l/activation	glut_min2_l/activation	glut_min3_l/activation	semimem_l/activation	semiten_l/activation	bifemlh_l/activation	bifemsh_l/activation	sar_l/activation	add_long_l/activation	add_brev_l/activation	add_mag1_l/activation	add_mag2_l/activation	add_mag3_l/activation	tfl_l/activation	pect_l/activation	grac_l/activation	glut_max1_l/activation	glut_max2_l/activation	glut_max3_l/activation	iliacus_l/activation	psoas_l/activation	quad_fem_l/activation	gem_l/activation	peri_l/activation	rect_fem_l/activation	vas_med_l/activation	vas_int_l/activation	vas_lat_l/activation	med_gas_l/activation	lat_gas_l/activation	soleus_l/activation	tib_post_l/activation	flex_dig_l/activation	flex_hal_l/activation	tib_ant_l/activation	per_brev_l/activation	per_long_l/activation	per_tert_l/activation	ext_dig_l/activation	ext_hal_l/activation	ercspn_l/activation	intobl_l/activation	extobl_l/activation	glut_med1_r/activation	glut_med2_r/activation	glut_med3_r/activation	glut_min1_r/activation	glut_min2_r/activation	glut_min3_r/activation	semimem_r/activation	semiten_r/activation	bifemlh_r/activation	bifemsh_r/activation	sar_r/activation	add_long_r/activation	add_brev_r/activation	add_mag1_r/activation	add_mag2_r/activation	add_mag3_r/activation	tfl_r/activation	pect_r/activation	grac_r/activation	glut_max1_r/activation	glut_max2_r/activation	glut_max3_r/activation	iliacus_r/activation	psoas_r/activation	quad_fem_r/activation	gem_r/activation	peri_r/activation	rect_fem_r/activation	vas_med_r/activation	vas_int_r/activation	vas_lat_r/activation	med_gas_r/activation	lat_gas_r/activation	soleus_r/activation	tib_post_r/activation	flex_dig_r/activation	flex_hal_r/activation	tib_ant_r/activation	per_brev_r/activation	per_long_r/activation	per_tert_r/activation	ext_dig_r/activation	ext_hal_r/activation	ercspn_r/activation	intobl_r/activation	extobl_r/activation	
          0.00000000	         -2.92953777	         -2.22788045	          5.54416562	          0.00000000	          0.91887382	         -0.00081192	        -16.46748042	         -1.56234184	          7.29218237	         29.53376405	          3.67210791	         -1.55365241	        -10.45137234	        -13.35526885	         -3.31612877	          4.30219906	         11.82512118	         -2.57310463	          4.17847037	         -0.02959224	         13.27503237	         -0.85355952	         -1.91472506	          0.52408757	         -2.02520734	          4.66551272	        -13.47181199	         16.84504488	         -4.90118669	        -13.48317449	          8.00720114	         35.47326301	         15.28365723	         86.51662706	         86.51662706	          0.29858701	          0.09146525	          0.06449458	          0.30095183	          0.19807907	          0.09667452	          0.05000011	          0.05000002	          0.05000001	          0.05835245	          0.09831216	          0.10702359	          0.09660193	          0.05000027	          0.05000031	          0.05000008	          0.26914507	          0.08809770	          0.05000034	          0.05000027	          0.05000017	          0.05000011	          0.31882725	          0.52065249	          0.05000005	          0.05000009	          0.05000002	          0.18749071	          0.09321873	          0.05309203	          0.06455230	          0.25787757	          0.34918754	          0.30101027	          0.23264726	          0.22455787	          0.29729471	          0.05000000	          0.05948141	          0.14707991	          0.05000001	          0.05000000	          0.05000000	          0.05000000	          0.05184581	          0.05527886	          0.05948139	          0.05948139	          0.05000001	          0.05948140	          0.05948140	          0.05948130	          0.05000122	          0.05000012	          0.17582005	          0.05000001	          0.05000005	          0.11913125	          0.28781353	          0.13204946	          0.16249349	          0.12233384	          0.05000001	          0.07076416	          0.05950730	          0.05000005	          0.05000006	          0.15051317	          0.05656988	          0.05000003	          0.27667642	          0.22638118	          0.13805740	          0.06740734	          0.18538360	          0.18427315	          0.15948678	          0.05000002	          0.05000002	          0.05449500	          0.05000000	          0.05000002	          0.05000002	          0.58956009	          0.26480472	          0.15612855	          0.35687995	          0.49171070	          0.23668576	          0.05020187	          0.10598505	          0.10014165	
          0.01137768	         -2.92457080	         -2.31644747	          5.79083957	          0.01742955	          0.91790264	         -0.00061616	        -16.24842275	         -1.85016024	          7.08344309	         28.76274043	          4.02756181	         -1.31801126	        -12.48910152	        -13.35662329	         -4.05996602	          3.66573267	         12.84252815	         -3.03394092	          3.22866850	          0.00386641	         14.97439288	         -0.85641513	         -1.70905960	          0.74271886	         -2.09668070	          4.27369750	        -13.49411316	         17.07756985	         -5.82934789	        -13.49207326	          7.72186575	         36.71271202	         14.99734418	         86.51662706	         86.51662706	          0.25099191	          0.07688559	          0.05732189	          0.25297979	          0.16650505	          0.08126450	          0.05000036	          0.05000005	          0.05000007	          0.05000000	          0.08264113	          0.20101488	          0.12037844	          0.05948166	          0.05948135	          0.05948143	          0.22624306	          0.07405502	          0.05000033	          0.05000112	          0.05000113	          0.05948111	          0.26800584	          0.48461389	          0.05948137	          0.05948135	          0.05000010	          0.15760449	          0.07835967	          0.14172177	          0.14172184	          0.21677160	          0.29352666	          0.25302890	          0.19556303	          0.18876312	          0.24990561	          0.05000000	          0.05000002	          0.15089491	          0.05000001	          0.05000000	          0.05000002	          0.06323494	          0.05948140	          0.05948142	          0.05000000	          0.05000000	          0.11832056	          0.05000000	          0.05000000	          0.05000000	          0.05000000	          0.05000002	          0.14779414	          0.05000000	          0.05000003	          0.10014161	          0.24193580	          0.31464846	          0.22244970	          0.13148172	          0.05000009	          0.05948450	          0.10571458	          0.09617086	          0.10525351	          0.12652122	          0.05000000	          0.05000003	          0.36724082	          0.19029577	          0.11605090	          0.05948145	          0.20471685	          0.20654921	          0.17222934	          0.05000001	          0.05000006	          0.05000000	          0.05948139	          0.05948117	          0.05948137	          0.49568957	          0.28931663	          0.17550570	          0.31497115	          0.46470666	          0.19895779	          0.05000000	          0.08909091	          0.08417896	
          0.02275537	         -2.91540356	         -2.40868216	          6.00587083	          0.03511201	          0.91692520	         -0.00043978	        -15.94697480	         -2.13099385	          6.86896876	         27.83745500	          4.30676846	         -1.05116363	        -14.64636807	        -13.62536534	         -4.94205313	          3.23354106	         13.78717159	         -3.51209640	          2.14871454	         -0.18871941	         16.65097953	         -0.88691784	         -1.48612820	          0.97227310	         -2.15652664	          3.80774302	        -13.51620222	         17.23188907	         -6.76884288	        -13.50932366	          7.50793834	         37.94128906	         14.73970127	         86.51662706	         86.51662706	          0.34568604	          0.06462995	          0.05000000	          0.31471362	          0.13996397	          0.06831085	          0.05000024	          0.05000001	          0.05000000	          0.05000005	          0.06946841	          0.16897291	          0.10427961	          0.05000025	          0.05000009	          0.05000005	          0.19017977	          0.08417956	          0.05000008	          0.05000008	          0.05000004	          0.05000002	          0.22528544	          0.44986303	          0.05000000	          0.05000003	          0.05000001	          0.13248216	          0.06586906	          0.11913117	          0.11913123	          0.18221796	          0.24673818	          0.21269581	          0.16439007	          0.15867408	          0.21007039	          0.09986212	          0.15053392	          0.16436531	          0.05000004	          0.13008346	          0.05000006	          0.06890594	          0.05000000	          0.05000002	          0.25336165	          0.26107977	          0.31629523	          0.35186797	          0.21718798	          0.17219190	          0.06763988	          0.07999844	          0.13039084	          0.07275282	          0.05948133	          0.08417893	          0.20337096	          0.26449316	          0.18699099	          0.12911604	          0.05000002	          0.05000269	          0.08886360	          0.19304596	          0.14857474	          0.10635362	          0.05000004	          0.05000002	          0.30870223	          0.15996244	          0.22803430	          0.05000004	          0.17208476	          0.17362505	          0.14477580	          0.05000002	          0.05000003	          0.05000000	          0.05000000	          0.05000000	          0.05000001	          0.58992080	          0.29645460	          0.15495263	          0.60961968	          0.54210006	          0.25355298	          0.06357236	          0.09808707	          0.07076074	
          0.03413305	         -2.90422679	         -2.49210523	          6.18545656	          0.05278708	          0.91598337	         -0.00023982	        -15.52062626	         -2.38987473	          6.66072576	         26.86519695	          4.56916673	         -0.78455598	        -16.97871896	        -13.86356024	         -5.88386929	          2.87149957	         14.65917894	         -4.01851213	          0.96546156	         -0.17195966	         18.05466246	         -0.84694418	         -1.27194125	          1.19736413	         -2.20617864	          3.31605372	        -13.54452977	         17.33697377	         -7.66376943	        -13.52670778	          7.37265343	         39.12657738	         14.47933148	         86.51662706	         86.51662706	          0.29058331	          0.05432787	          0.05000000	          0.26454793	          0.11765357	          0.05742203	          0.05000014	          0.05000002	          0.05000002	          0.05000000	          0.05839510	          0.19017683	          0.10854194	          0.05000020	          0.05000478	          0.11873504	          0.15986492	          0.07076129	          0.05000004	          0.05000031	          0.05000021	          0.05000014	          0.18937469	          0.39747748	          0.05000001	          0.05000007	          0.05000001	          0.11136435	          0.10014162	          0.10014163	          0.10014163	          0.15317221	          0.20740784	          0.17879186	          0.13818611	          0.13338127	          0.17658494	          0.19012173	          0.12831285	          0.13816531	          0.30894948	          0.20291655	          0.15871556	          0.10206417	          0.05000000	          0.05000000	          0.38241410	          0.41743537	          0.47394715	          0.29578009	          0.23339694	          0.39487835	          0.07258053	          0.10501321	          0.11023115	          0.06115595	          0.05000004	          0.07076072	          0.17095342	          0.22233271	          0.19633281	          0.16676675	          0.05000002	          0.05246211	          0.09326962	          0.27350772	          0.20045705	          0.15788943	          0.05000001	          0.05000000	          0.25949476	          0.13446426	          0.25258666	          0.05000000	          0.22858997	          0.23615352	          0.18927687	          0.05000000	          0.05000000	          0.05000000	          0.05000000	          0.05000009	          0.05000004	          0.69624897	          0.24919940	          0.13025301	          0.51244569	          0.54184344	          0.38004657	          0.08937463	          0.08245188	          0.05948140	
